<?xml version="1.0" encoding="iso-8859-1"?>
<!-- Generator: Adobe Illustrator 19.0.0, SVG Export Plug-In . SVG Version: 6.00 Build 0)  -->
<svg version="1.1" id="Layer_1" xmlns="http://www.w3.org/2000/svg" xmlns:xlink="http://www.w3.org/1999/xlink" x="0px" y="0px"
	 viewBox="0 0 512 512" style="enable-background:new 0 0 512 512;" xml:space="preserve">
<g>
	<path style="fill:#2D527C;" d="M107.406,458.154c-0.694,0-1.393-0.049-2.1-0.152c-26.406-3.843-50.358-15.872-69.273-34.785
		c-18.876-18.876-30.883-42.84-34.728-69.303c-3.532-24.317,0.137-48.586,10.616-70.578c-7.698-25.877-8.845-53.346-3.288-79.837
		c6.443-30.724,21.625-58.737,43.901-81.013c27.641-27.641,64.249-44.379,103.08-47.127c20.681-1.467,41.101,0.994,60.806,7.315
		c33.626-24.936,74.823-37.789,116.953-36.309c46.966,1.651,91.145,20.869,124.396,54.121C492.74,135.456,512,182.02,512,231.601
		s-19.259,96.144-54.23,131.116c-5.642,5.644-14.794,5.644-20.439,0c-5.644-5.644-5.644-14.796,0-20.441
		c29.51-29.51,45.764-68.815,45.764-110.675s-16.252-81.165-45.764-110.675c-28.062-28.06-65.34-44.282-104.97-45.673
		c-37.864-1.317-74.858,11.054-104.165,34.863c-3.986,3.237-9.392,4.119-14.2,2.311c-18.154-6.826-37.114-9.594-56.34-8.235
		c-31.889,2.255-61.963,16.011-84.683,38.731c-18.296,18.295-30.762,41.292-36.05,66.507c-4.92,23.453-3.45,47.836,4.249,70.514
		c1.292,3.804,0.941,7.974-0.965,11.507c-19.611,36.356-12.922,82.135,16.267,111.322c14.478,14.478,32.802,23.683,52.998,26.622
		c7.899,1.149,13.37,8.485,12.22,16.384C120.643,452.974,114.465,458.154,107.406,458.154z"/>
	<path style="fill:#2D527C;" d="M78.354,326.493c-2.317,0-4.667-0.558-6.848-1.734c-7.026-3.79-9.649-12.557-5.859-19.582
		l8.971-16.632l-6.075-17.893c-6.036-17.781-7.187-36.898-3.33-55.288c4.132-19.704,13.883-37.683,28.199-52
		c17.799-17.797,41.338-28.573,66.281-30.338c2.454-0.175,4.944-0.263,7.403-0.263c7.982,0,14.453,6.472,14.453,14.453
		s-6.471,14.453-14.453,14.453c-1.779,0-3.583,0.064-5.361,0.189c-18.001,1.275-35.006,9.068-47.883,21.947
		c-10.335,10.335-17.372,23.301-20.35,37.494c-2.797,13.327-1.961,27.18,2.411,40.062l8.099,23.857
		c1.292,3.804,0.941,7.972-0.965,11.507L91.088,318.9C88.475,323.743,83.496,326.493,78.354,326.493z"/>
	<path style="fill:#2D527C;" d="M222.187,465.75c-21.301,0-42.714-6.319-61.298-19.222c-6.557-4.551-8.182-13.558-3.629-20.114
		c4.551-6.556,13.558-8.183,20.114-3.629c31.272,21.71,73.516,17.925,100.448-9.007c5.663-5.661,10.419-12.188,14.141-19.394
		c2.788-5.398,8.657-8.475,14.677-7.706c22.383,2.86,45.512,0.864,66.884-5.786c7.62-2.375,15.722,1.885,18.094,9.507
		c2.372,7.621-1.885,15.723-9.507,18.095c-22.234,6.916-46.064,9.585-69.468,7.835c-4.144,6.475-8.958,12.467-14.381,17.89
		C277.436,455.044,249.909,465.75,222.187,465.75z"/>
</g>
<circle style="fill:#CEE8FA;" cx="339.108" cy="223.426" r="88.886"/>
<path style="fill:#2D527C;" d="M339.114,326.772c-56.981,0-103.339-46.358-103.339-103.339s46.358-103.339,103.339-103.339
	s103.339,46.358,103.339,103.339S396.095,326.772,339.114,326.772z M339.114,149.001c-41.042,0-74.433,33.391-74.433,74.433
	s33.391,74.433,74.433,74.433s74.433-33.391,74.433-74.433S380.156,149.001,339.114,149.001z"/>
	
</svg>

